<svg viewBox="0 0 340 48" fill="none" xmlns="http://www.w3.org/2000/svg">
<path d="M271.768 15.3954V30.324C271.768 30.8412 271.634 31.2964 271.365 31.6896C271.097 32.062 270.755 32.3413 270.342 32.5276C269.949 32.7345 269.515 32.8172 269.039 32.7759C268.564 32.7552 268.13 32.5793 267.737 32.2482L252.572 19.9888V32.4034H248.882V17.4749C248.882 16.9576 249.016 16.5024 249.285 16.1093C249.554 15.7162 249.885 15.4265 250.278 15.2403C250.691 15.054 251.125 14.9816 251.58 15.023C252.056 15.0437 252.49 15.2196 252.883 15.5506L268.078 27.779V15.3954H271.768Z" fill="white"/>
<path fill-rule="evenodd" clip-rule="evenodd" d="M132.222 15.3023H144.069C144.916 15.3023 145.712 15.4679 146.457 15.7989C147.201 16.1093 147.842 16.5438 148.379 17.1024C148.937 17.6611 149.372 18.3129 149.682 19.0577C150.013 19.8026 150.178 20.5992 150.178 21.4475V32.4034H146.457V28.3066H129.834V32.4034H126.113V21.4475C126.113 20.5992 126.268 19.8026 126.578 19.0577C126.909 18.3129 127.343 17.6611 127.881 17.1024C128.439 16.5438 129.09 16.1093 129.834 15.7989C130.579 15.4679 131.375 15.3023 132.222 15.3023ZM129.834 24.5512H146.457V21.4475C146.457 20.7854 146.219 20.2268 145.743 19.7716C145.288 19.2957 144.73 19.0577 144.069 19.0577H132.222C131.561 19.0577 130.992 19.2957 130.517 19.7716C130.062 20.2268 129.834 20.7854 129.834 21.4475V24.5512Z" fill="white"/>
<path d="M177.73 28.679V32.4034H163.589C162.741 32.4034 161.945 32.2482 161.201 31.9379C160.456 31.6068 159.805 31.1723 159.247 30.6343C158.709 30.0757 158.275 29.4239 157.944 28.679C157.634 27.9342 157.479 27.1376 157.479 26.2892V15.3954H161.201V26.2892C161.201 26.9513 161.428 27.5204 161.883 27.9962C162.358 28.4514 162.927 28.679 163.589 28.679H177.73Z" fill="white"/>
<path fill-rule="evenodd" clip-rule="evenodd" d="M235.458 15.3023H223.611C222.764 15.3023 221.968 15.4679 221.223 15.7989C220.479 16.1093 219.828 16.5438 219.27 17.1024C218.732 17.6611 218.298 18.3129 217.967 19.0577C217.657 19.8026 217.502 20.5992 217.502 21.4475V32.4034H221.223V28.3066H237.845V32.4034H241.567V21.4475C241.567 20.5992 241.401 19.8026 241.071 19.0577C240.761 18.3129 240.326 17.6611 239.768 17.1024C239.231 16.5438 238.59 16.1093 237.845 15.7989C237.101 15.4679 236.305 15.3023 235.458 15.3023ZM237.845 24.5512H221.223V21.4475C221.223 20.7854 221.451 20.2268 221.906 19.7716C222.381 19.2957 222.95 19.0577 223.611 19.0577H235.458C236.119 19.0577 236.677 19.2957 237.132 19.7716C237.608 20.2268 237.845 20.7854 237.845 21.4475V24.5512Z" fill="white"/>
<path d="M304.277 32.4034V28.679H285.175C284.513 28.679 283.945 28.4514 283.469 27.9962C283.014 27.5204 282.787 26.9513 282.787 26.2892V21.5096C282.787 20.8475 283.014 20.2889 283.469 19.8337C283.945 19.3578 284.513 19.1198 285.175 19.1198H304.277V15.3954L285.175 15.3644C284.327 15.3644 283.531 15.5299 282.787 15.861C282.043 16.1714 281.391 16.6059 280.833 17.1645C280.296 17.7232 279.861 18.3749 279.531 19.1198C279.221 19.8647 279.066 20.6613 279.066 21.5096V26.2892C279.066 27.1376 279.221 27.9342 279.531 28.679C279.861 29.4239 280.296 30.0757 280.833 30.6343C281.391 31.1723 282.043 31.6068 282.787 31.9379C283.531 32.2482 284.327 32.4034 285.175 32.4034H304.277Z" fill="white"/>
<path d="M336.793 28.679V32.4034H317.69C316.842 32.4034 316.046 32.2482 315.302 31.9379C314.558 31.6068 313.906 31.1723 313.348 30.6343C312.811 30.0757 312.376 29.4239 312.046 28.679C311.736 27.9342 311.581 27.1376 311.581 26.2892V21.5096C311.581 20.6613 311.736 19.8647 312.046 19.1198C312.376 18.3749 312.811 17.7232 313.348 17.1645C313.906 16.6059 314.558 16.1714 315.302 15.861C316.046 15.5299 316.842 15.3644 317.69 15.3644L336.793 15.3954V19.1198H317.69C317.028 19.1198 316.46 19.3578 315.984 19.8337C315.529 20.2889 315.302 20.8475 315.302 21.5096V22.0062H336.793V25.7616H315.302V26.2892C315.302 26.9513 315.529 27.5204 315.984 27.9962C316.46 28.4514 317.028 28.679 317.69 28.679H336.793Z" fill="white"/>
<path d="M93.6172 23.8978C93.6172 19.2011 97.4216 15.3937 102.114 15.3937H118.79V19.1511H102.114C99.495 19.1511 97.3715 21.2763 97.3715 23.8978C97.3715 26.5194 99.495 28.6446 102.114 28.6446H118.79V32.402H102.114C97.4216 32.402 93.6172 28.5946 93.6172 23.8978Z" fill="white"/>
<path d="M201.706 15.3937C206.399 15.3937 210.204 19.2011 210.204 23.8978C210.204 28.5946 206.399 32.402 201.706 32.402H185.031V28.6446H201.706C204.326 28.6446 206.449 26.5194 206.449 23.8978C206.449 21.2763 204.326 19.1511 201.706 19.1511H185.031V15.3937H201.706Z" fill="white"/>
<path fill-rule="evenodd" clip-rule="evenodd" d="M50.2584 3.19995H20.5059C10.9527 3.19995 3.20825 10.9444 3.20825 20.4976C3.20825 30.0508 10.9527 37.7953 20.5059 37.7953H30.3009L34.0862 31.2336H20.5059C14.5766 31.2336 9.7699 26.4269 9.7699 20.4976C9.7699 14.5683 14.5766 9.7616 20.5059 9.7616H46.4731L50.2584 3.19995Z" fill="#8DFF00"/>
<path fill-rule="evenodd" clip-rule="evenodd" d="M26.2597 44.8H56.0124C65.5656 44.8 73.3101 37.0556 73.3101 27.5024C73.3101 17.9492 65.5656 10.2047 56.0124 10.2047H46.2172L42.4319 16.7664H56.0124C61.9417 16.7664 66.7484 21.5731 66.7484 27.5024C66.7484 33.4317 61.9417 38.2384 56.0124 38.2384H30.045L26.2597 44.8Z" fill="#8DFF00"/>
</svg>
