<svg width="32" height="32" fill="none" xmlns="http://www.w3.org/2000/svg"><path fill-rule="evenodd" clip-rule="evenodd" d="M16 3.077C8.862 3.077 3.077 8.862 3.077 16H0C0 7.138 7.138 0 16 0c8.861 0 16 7.2 16 16h-3.077C28.923 8.862 23.14 3.077 16 3.077Z" fill="#150099"/><path fill-rule="evenodd" clip-rule="evenodd" d="M16 14.523 9.292 27.015a12.486 12.486 0 0 0 6.646 1.908c2.462 0 4.739-.677 6.708-1.846l-2.03-3.815h-7.631l.861-1.723c.37-.739 1.17-1.231 1.97-1.231h3.26L16 14.523ZM3.077 16c0 3.57 1.415 6.83 3.815 9.17l6.523-11.94c.493-.922 1.477-1.6 2.585-1.6a2.94 2.94 0 0 1 2.585 1.6l6.523 11.94A12.982 12.982 0 0 0 28.923 16H32c0 8.862-7.2 16-16 16-8.862 0-16-7.2-16-16h3.077Z" fill="#BAB300"/></svg>